<svg width="183" height="60" viewBox="0 0 183 60" fill="none" xmlns="http://www.w3.org/2000/svg">
<g clip-path="url(#clip0_772_824)">
<path d="M38.419 28.2644C38.9772 28.2644 39.5809 28.1692 40.2254 27.9743C40.8698 27.7794 41.4281 27.5664 41.9001 27.3307C42.3721 27.095 42.6081 26.8911 42.6081 26.7189V15.1023C42.6081 14.1958 41.8729 13.457 40.9606 13.457H14.6051C14.2602 13.457 13.9788 13.738 13.9788 14.0825V14.6989C13.9788 15.0434 14.2602 15.3244 14.6051 15.3244H35.9319C36.8396 15.3244 37.5794 16.0586 37.5794 16.9696V28.2644H38.4145H38.419Z" fill="white"/>
<path d="M44.2194 41.2676C44.8185 41.2676 45.4448 41.1588 46.0893 40.9458C46.7338 40.7328 47.292 40.4971 47.764 40.2388C48.236 39.9804 48.4721 39.79 48.4721 39.6586V32.9008C48.4721 32.9008 48.4766 32.9008 48.4811 32.9008V31.0924C48.4811 30.5575 48.05 30.127 47.5144 30.127H42.7444L42.7353 30.136H9.17704C8.64149 30.136 8.21033 30.5666 8.21033 31.1014C8.21033 31.6362 8.64149 32.0668 9.17704 32.0668H14.1831C14.7186 32.0668 15.1498 32.4974 15.1498 33.0322V36.7669C15.1498 37.3018 14.7186 37.7323 14.1831 37.7323H8.83665C8.49172 37.7323 8.21033 38.0133 8.21033 38.3578V38.9742C8.21033 39.3187 8.49172 39.5997 8.83665 39.5997H42.4131C42.9486 39.5997 43.3798 40.0303 43.3798 40.5651V41.2721H44.2149L44.2194 41.2676ZM28.4297 37.7278H21.0182C20.4826 37.7278 20.0515 37.2972 20.0515 36.7624V33.0277C20.0515 32.4929 20.4826 32.0623 21.0182 32.0623H28.4297C28.9652 32.0623 29.3964 32.4929 29.3964 33.0277V36.7624C29.3964 37.2972 28.9652 37.7278 28.4297 37.7278ZM34.4252 36.7624V33.0277C34.4252 32.4929 34.8563 32.0623 35.3919 32.0623H42.4176C42.9531 32.0623 43.3843 32.4929 43.3843 33.0277V36.7624C43.3843 37.2972 42.9531 37.7278 42.4176 37.7278H35.3919C34.8563 37.7278 34.4252 37.2972 34.4252 36.7624Z" fill="white"/>
<path d="M1.40245 41.7849C2.09685 41.7849 2.79579 41.6988 3.4675 41.5085C4.13921 41.3181 4.73376 41.0824 5.1967 40.8195C5.65963 40.5566 5.87295 40.3708 5.87295 40.2394V30.7485C5.87295 30.4041 5.59155 30.123 5.24662 30.123H0.776123V41.1595C0.776123 41.5039 1.05751 41.7849 1.40245 41.7849Z" fill="white"/>
<path d="M16.4433 24.5977C15.413 24.5977 14.5734 25.4316 14.5734 26.465H15.0908H35.9092V24.5977H16.4433Z" fill="white"/>
<path d="M35.9047 18.9961H14.5734V20.8634H34.6611C35.3464 20.8634 35.9047 20.306 35.9047 19.6216V18.9961Z" fill="white"/>
<path d="M11.5417 27.6832C11.9683 27.4067 12.1861 27.2028 12.1861 27.0668V14.095C12.1861 13.175 11.4418 12.4316 10.5205 12.4316H8.89112C7.96979 12.4316 7.22546 13.175 7.22546 14.095V28.7166H7.93348C8.61881 28.7166 9.28598 28.6123 9.93046 28.4084C10.5749 28.2044 11.1105 27.9597 11.5417 27.6877V27.6832Z" fill="white"/>
<path d="M66.6173 39.0156C65.941 39.0156 65.3918 39.564 65.3918 40.2394V55.0785C65.3918 55.9578 66.2859 56.5424 67.0983 56.207C68.4055 55.6632 70.0212 54.521 70.2254 52.1823V39.0202H66.6173V39.0156Z" fill="white"/>
<path d="M94.2798 39.0156C93.481 39.0156 92.832 39.6638 92.832 40.4615V54.9878C92.832 55.9623 93.7897 56.6739 94.7201 56.3657C97.6792 55.3912 97.6656 52.5403 97.6656 52.5403V39.0202H94.2753L94.2798 39.0156Z" fill="white"/>
<path d="M101.474 12.2415C101.301 12.0828 101.074 11.9922 100.838 11.9922H94.6384L95.7186 13.157L96.1997 13.6737L97.003 14.4352L104.074 21.1159L104.651 21.6598C104.705 21.7097 104.764 21.7595 104.828 21.7958C107.092 23.1646 109.362 23.2144 110.868 23.0105C111.654 22.9062 111.962 21.9363 111.381 21.3969L103.575 14.1813L101.474 12.2369V12.2415Z" fill="white"/>
<path d="M85.0666 50.8905V39.9493C85.0666 39.4326 84.6491 39.0156 84.1317 39.0156H81.168C80.6506 39.0156 80.233 39.4326 80.233 39.9493V51.6973C80.233 51.6973 80.224 51.8061 80.233 51.9783C80.2648 52.6899 80.5689 54.521 82.8382 54.7204H88.2436C88.761 54.7204 89.1786 54.3034 89.1786 53.7867C89.1786 53.27 88.761 52.8531 88.2436 52.8531H87.0318C85.9471 52.8531 85.0666 51.9738 85.0666 50.8905Z" fill="#FFD500"/>
<path d="M112.13 51.2577V39.6048C112.13 39.2785 111.867 39.0156 111.54 39.0156H107.882C107.555 39.0156 107.292 39.2785 107.292 39.6048V51.9828C107.324 52.6944 107.628 54.5255 109.897 54.7249H115.648C115.974 54.7249 116.238 54.4621 116.238 54.1357V53.4423C116.238 53.1159 115.974 52.8531 115.648 52.8531H113.723C112.838 52.8531 112.121 52.1369 112.121 51.2531L112.13 51.2577Z" fill="white"/>
<path d="M33.0636 52.7441C32.4781 52.6443 32.3556 51.8466 32.882 51.5747C33.6354 51.1894 34.5795 50.6591 35.6097 49.9793C37.9062 48.4609 40.6158 46.1811 42.5719 43.0039H5.36464C4.94255 43.0039 4.64301 43.4118 4.76555 43.8152L4.95617 44.4316C5.03786 44.6945 5.27841 44.8713 5.55526 44.8713H11.0379C11.2285 44.8713 11.4055 44.9574 11.5235 45.1069C13.9607 48.2071 16.938 50.7181 20.469 52.6262C20.578 52.6851 20.6914 52.7395 20.8003 52.7939C18.0999 53.859 15.236 54.8199 12.1544 55.6493C8.73227 56.5694 5.08325 57.4034 1.20277 58.1467C0.444823 58.2917 0.558287 59.4112 1.32985 59.384C4.97432 59.2526 10.0984 58.7586 16.4252 57.349C19.4705 56.6419 22.3389 55.8306 25.0121 54.8924C25.1483 54.8426 25.2935 54.8471 25.4297 54.9015C28.1029 55.9349 31.0031 56.7734 34.1301 57.4215C39.3087 58.4957 44.9501 59.2662 51.05 59.7376L54.1861 59.9506C54.5492 59.9732 54.8533 59.6877 54.8533 59.3251V54.9513C54.8533 54.6069 54.5719 54.3304 54.2315 54.3304C49.8109 54.3168 45.5311 54.131 41.3873 53.7865C38.4781 53.5418 35.7096 53.1928 33.0681 52.7441H33.0636ZM25.3072 50.8314C25.1665 50.8948 25.0031 50.9084 24.8578 50.8631C22.8064 50.2331 20.8684 49.5124 19.0848 48.6694C17.4418 47.8944 15.9531 47.006 14.6143 45.9998C14.1377 45.6418 14.401 44.8713 15 44.8713H32.8775C33.4811 44.8713 33.7308 45.6327 33.2542 45.9998C31.0848 47.6632 28.6975 49.1589 26.0833 50.4733C25.8336 50.5957 25.5749 50.7135 25.3162 50.8314H25.3072Z" fill="white"/>
<path d="M124.793 48.8784C124.779 48.9736 124.765 49.0733 124.756 49.164C124.634 50.1974 124.634 51.0495 124.716 51.7429C124.874 53.0619 125.315 53.8142 125.696 54.2357C126.408 54.8748 127.298 55.2147 128.387 55.2147C128.991 55.2147 129.526 54.9337 129.998 54.3762C130.47 53.8188 130.752 53.0256 130.838 51.9967C130.838 51.9967 132.032 43.299 134.9 36.9355C134.9 36.9355 125.918 40.1445 124.797 48.8784H124.793Z" fill="white"/>
<path d="M145.543 35.5387V59.9321H146.315C147 59.9321 147.676 59.8234 148.343 59.6103C149.011 59.3973 149.555 59.148 149.986 58.8715C150.418 58.5905 150.631 58.3684 150.631 58.1962V34.8679C150.631 33.9569 149.891 33.2227 148.983 33.2227H147.191C146.278 33.2227 145.543 33.9614 145.543 34.8679V35.5387Z" fill="white"/>
<path d="M131.256 14.2583C133.266 14.2583 134.896 12.6308 134.896 10.6233C134.896 8.61572 133.266 6.98828 131.256 6.98828C129.245 6.98828 127.616 8.61572 127.616 10.6233C127.616 12.6308 129.245 14.2583 131.256 14.2583Z" fill="#FFD500"/>
<path d="M131.256 29.1665C133.266 29.1665 134.896 27.539 134.896 25.5315C134.896 23.5239 133.266 21.8965 131.256 21.8965C129.245 21.8965 127.616 23.5239 127.616 25.5315C127.616 27.539 129.245 29.1665 131.256 29.1665Z" fill="#FFF46E"/>
<path d="M174.227 21.0575H165.495C164.977 21.0575 164.56 20.6406 164.56 20.1239V9.83984C164.56 9.37753 164.9 8.98775 165.359 8.91976C167.356 8.62969 169.353 8.26256 171.286 7.80932C172.443 7.53738 173.569 7.23371 174.667 6.89377C174.962 6.80313 175.189 6.57197 175.28 6.27737L176.487 2.45202C176.723 1.70417 175.992 1.01978 175.262 1.30079C173.233 2.08942 170.496 3.07749 168.622 3.6803C166.085 4.49613 163.357 5.29837 160.434 6.09607C157.511 6.88924 154.539 7.60989 151.507 8.2535C148.48 8.8971 145.566 9.45459 142.775 9.92596C142.775 9.92596 150.349 10.3565 159.272 9.61322C159.295 9.61322 159.318 9.61322 159.34 9.60869V20.1284C159.34 20.6451 158.923 21.0621 158.405 21.0621H142.484C141.967 21.0621 141.549 21.4791 141.549 21.9958V22.9294H158.405C158.923 22.9294 159.34 23.3464 159.34 23.8631V34.614C159.34 35.1307 158.923 35.5476 158.405 35.5476H153.29C152.773 35.5476 152.356 35.9646 152.356 36.4813C152.356 36.998 152.773 37.415 153.29 37.415H172.33C172.847 37.415 173.265 37.832 173.265 38.3487V51.9323C173.265 52.449 172.847 52.866 172.33 52.866H153.29C152.773 52.866 152.356 53.283 152.356 53.7997C152.356 54.3163 152.773 54.7333 153.29 54.7333H172.33C172.847 54.7333 173.265 55.1503 173.265 55.667V59.6238H174.104C174.703 59.6238 175.33 59.5286 175.974 59.3337C176.619 59.1388 177.186 58.9031 177.681 58.6267C178.176 58.3457 178.421 58.1417 178.421 58.0148V36.4859C178.421 35.9692 178.003 35.5522 177.486 35.5522H165.495C164.977 35.5522 164.56 35.1352 164.56 34.6185V23.8676C164.56 23.3509 164.977 22.934 165.495 22.934H183V21.0666H174.227V21.0575Z" fill="white"/>
<path d="M77.9773 35.153V26.1426H74.0787C73.5613 26.1426 73.1438 26.5596 73.1438 27.0763V35.153H64.2799C63.7625 35.153 63.345 35.57 63.345 36.0867C63.345 36.6034 63.7625 37.0204 64.2799 37.0204H72.2088C72.7262 37.0204 73.1438 37.4373 73.1438 37.954V59.9997H74.1105C74.7096 59.9997 75.3041 59.9045 75.8805 59.7096C76.4615 59.5147 76.9562 59.2926 77.3646 59.0343C77.7731 58.7759 77.9773 58.5629 77.9773 58.3907V35.153Z" fill="white"/>
<path d="M105.114 37.0204V26.2695H101.083C100.566 26.2695 100.148 26.6865 100.148 27.2032V35.153H92.7868C92.2694 35.153 91.8518 35.57 91.8518 36.0867C91.8518 36.6034 92.2694 37.0204 92.7868 37.0204H99.2134C99.7308 37.0204 100.148 37.4374 100.148 37.9541V59.9997H101.179C101.782 59.9997 102.39 59.9136 103.017 59.7414C103.638 59.5691 104.142 59.3652 104.533 59.1295C104.918 58.8938 105.114 58.7125 105.114 58.5811V37.0159V37.0204Z" fill="white"/>
<path d="M88.5386 35.1543H79.5114V37.0216H88.5386V35.1543Z" fill="white"/>
<path d="M107.705 37.0216H117.055V35.1543H106.802H106.48V37.0216H107.705Z" fill="white"/>
<path d="M87.177 0.716797C86.6596 0.716797 86.242 1.13378 86.242 1.65047V7.63778C86.242 8.15448 85.8245 8.57146 85.3071 8.57146H66.3903C65.8729 8.57146 65.4553 8.98844 65.4553 9.50513C65.4553 10.0218 65.8729 10.4388 66.3903 10.4388H77.8774C78.7125 10.4388 79.1255 11.445 78.5355 12.0342L78.0726 12.4965L69.9667 20.5642C69.4311 21.0945 69.7125 22.0236 70.4568 22.146C71.9863 22.3998 74.3918 22.4044 76.7927 20.8407C76.8562 20.7999 76.9152 20.75 76.9697 20.6956L77.5597 20.0974L84.7534 12.773L85.5703 11.939L86.0559 11.3725L86.2329 11.1685V28.0245C86.2329 28.5911 86.7322 29.0353 87.295 28.9492C88.8063 28.718 91.3978 27.9158 91.4205 25.1374L91.4523 25.1827V0.716797H87.1679H87.177Z" fill="white"/>
<path d="M112.398 8.57031H92.8367V10.4377H112.398C112.915 10.4377 113.333 10.0207 113.333 9.50399C113.333 8.98729 112.915 8.57031 112.398 8.57031Z" fill="white"/>
<path d="M38.6868 3.83799H38.705V0.0625H34.1755C33.8305 0.0625 33.5491 0.343509 33.5491 0.687972V4.65383C33.5491 4.99829 33.2678 5.2793 32.9228 5.2793H28.4115C28.0665 5.2793 27.7852 5.56031 27.7852 5.90477V6.52118C27.7852 6.86564 28.0665 7.14665 28.4115 7.14665H32.9228C33.2678 7.14665 33.5491 7.42766 33.5491 7.77212V11.0717H34.5159C35.1603 11.0717 35.8048 10.9856 36.4493 10.8134C37.0938 10.6411 37.6339 10.4508 38.0605 10.2332C38.4917 10.0202 38.705 9.84797 38.705 9.71653V7.79479H38.6868V3.83346V3.83799Z" fill="white"/>
<path d="M45.1497 5.27539H40.8926C40.5476 5.27539 40.2662 5.5564 40.2662 5.90086V6.51727C40.2662 6.86173 40.5476 7.14274 40.8926 7.14274H52.1255V7.07022C52.1255 6.07763 51.3222 5.27539 50.3283 5.27539H45.1497Z" fill="white"/>
<path d="M17.9591 5.27539V6.51727C17.9591 6.86173 18.2405 7.14274 18.5854 7.14274H23.714C24.059 7.14274 24.3403 6.86173 24.3403 6.51727V5.90086C24.3403 5.5564 24.059 5.27539 23.714 5.27539H17.9591Z" fill="#FFF46E"/>
<path d="M16.3752 5.27572V0H11.9092C11.5643 0 11.2829 0.281009 11.2829 0.625472V4.65478C11.2829 4.99924 11.0015 5.28025 10.6566 5.28025H0.626324C0.281392 5.28025 0 5.56126 0 5.90573V6.52213C0 6.8666 0.281392 7.14761 0.626324 7.14761H10.6611C11.0061 7.14761 11.2874 7.42861 11.2874 7.77308V10.7055C11.2874 11.05 11.5688 11.331 11.9138 11.331H12.1861C12.8169 11.331 13.4569 11.2676 14.0696 11.1271C14.7322 10.973 15.2859 10.7826 15.7352 10.5605C16.1664 10.3475 16.3797 10.1753 16.3797 10.0438V5.28025L16.3752 5.27572Z" fill="white"/>
</g>
<defs>
<clipPath id="clip0_772_824">
<rect width="183" height="60" fill="white"/>
</clipPath>
</defs>
</svg>
