<svg width="61" height="60" viewBox="0 0 61 60" fill="none" xmlns="http://www.w3.org/2000/svg">
<g clip-path="url(#clip0_768_3995)">
<path d="M13.1102 11.4102C11.6467 12.3455 10.1914 12.7617 8.52288 12.6175C6.41985 12.4362 5.2597 10.8333 4.81696 9.24273C4.77187 9.08615 4.89075 8.72353 4.96864 8.71529C5.3048 8.67409 5.65735 8.72353 6.12879 8.74413C6.17388 8.55047 6.23948 8.25378 6.33786 7.817C6.74371 8.20434 7.05527 8.6164 7.46931 8.85951C7.83827 9.0779 8.37939 9.30454 8.73195 9.18916C11.8926 8.14253 14.4835 6.19349 16.7956 3.83651C16.9596 3.66756 17.0703 3.44505 17.1932 3.2349C17.6729 2.40666 18.7264 2.11822 19.5586 2.59621C21.2681 3.57279 21.9281 5.53831 21.2312 7.41318C20.2186 10.1451 19.1282 12.8565 18.2878 15.6461C17.6483 17.7682 17.2383 19.9769 16.9309 22.1732C16.4307 25.7251 16.0864 29.3018 15.7133 32.8702C15.6682 33.3194 15.865 33.7891 15.9265 34.2506C15.9634 34.5432 16.0003 34.844 15.9634 35.1324C15.8568 35.9401 15.4961 36.7807 15.6354 37.5347C15.8814 38.8616 15.0123 39.4755 14.3318 40.2543C14.2539 40.345 14.1473 40.415 14.0408 40.4686C13.2086 40.8683 12.5321 42.191 11.3966 40.6252C11.1547 42.158 10.9129 43.3901 10.7694 44.6345C10.3922 47.9804 10.0233 51.3264 9.73222 54.6805C9.67892 55.2904 9.91669 55.9703 10.1668 56.5513C10.671 57.7174 10.3102 58.8382 9.16649 59.3409C8.76064 59.5181 8.3794 59.7571 7.96945 59.9055C7.73168 59.992 7.42422 60.0373 7.19055 59.9631C3.94378 58.8794 1.37341 56.9469 0.594517 53.4773C0.0861837 51.2069 0.0205923 48.8128 9.49738e-05 46.4723C-0.00810395 45.1867 0.516627 43.9011 0.766694 42.6113C1.37751 39.4426 1.91044 36.2574 2.59505 33.101C2.94351 31.4939 3.57483 29.9487 4.01347 28.3582C4.12005 27.975 3.97657 27.5258 3.96018 27.1055C3.92738 26.269 3.84539 25.4284 3.89048 24.5961C3.92738 23.945 4.03397 23.2692 4.27173 22.6717C4.5054 22.0825 4.83336 21.3367 5.3335 21.0977C5.90742 20.8257 6.46905 21.3408 6.92819 21.9177C7.5472 22.7047 8.38349 23.3104 9.0927 24.0315C9.32637 24.2705 9.58054 24.6126 9.60104 24.9216C9.65843 25.6674 9.75681 26.4833 9.52314 27.155C9.0886 28.3953 9.69532 29.343 10.1463 30.3979C10.7776 24.0151 11.0932 17.6034 13.102 11.406H13.1102V11.4102ZM6.055 50.0902C6.17388 50.0943 6.29277 50.1026 6.41575 50.1067C6.57153 49.6617 6.69042 49.196 6.89129 48.7716C8.28921 45.7471 8.90823 42.4959 9.65023 39.2819C9.75681 38.8245 9.53954 38.2311 9.32637 37.7696C8.94102 36.9373 8.46138 36.142 7.96945 35.3673C7.91616 35.2849 7.32993 35.3673 7.28074 35.4909C6.95688 36.2903 6.55923 37.1021 6.47724 37.9427C6.18208 40.8559 5.95251 43.7774 5.80493 46.7031C5.74754 47.8239 5.96891 48.9612 6.0591 50.0902H6.055Z" fill="white"/>
<path d="M24.8265 40.6249C24.6215 40.3282 24.437 40.0645 24.0886 39.5659C26.0973 38.9148 28.0199 38.2926 29.9426 37.6704V37.316C29.5982 37.1306 29.2703 36.8957 28.9013 36.768C27.5813 36.3065 26.249 35.8821 24.9248 35.4329C24.7896 35.3876 24.6543 35.2887 24.56 35.1774C23.7114 34.1844 22.871 33.1913 22.0429 32.1818C21.9404 32.0582 21.883 31.7161 21.9035 31.7079C22.4898 31.4607 22.5103 30.3852 23.4162 30.6366C26.6425 31.5307 29.4629 30.2492 32.3244 29.0419C34.4438 28.1518 36.6124 27.3895 38.7564 26.5613C38.9696 26.4789 39.3344 26.3388 39.3344 26.2234C39.3426 25.2015 40.2445 25.1603 40.8144 25.0284C41.4621 24.876 42.2041 25.115 42.901 25.185C43.8685 25.2839 44.7416 25.494 45.4058 26.3511C46.0576 27.1876 46.1683 28.2425 45.6927 29.1737C44.7293 31.061 43.8603 32.9977 42.9502 34.9137C42.4664 35.9356 41.9458 36.9452 41.5072 37.9918C41.0849 39.0055 40.7447 40.0562 40.2732 41.3583C41.335 41.1606 42.2369 41.0658 43.0937 40.8144C44.672 40.3529 46.2502 39.8584 47.7793 39.2486C48.4681 38.9725 49.0051 38.3297 49.6692 37.9547C50.3046 37.5962 50.9892 37.2254 51.6943 37.1182C53.5268 36.838 55.2117 37.3696 56.9129 38.1031C59.3398 39.1456 60.2048 41.2594 60.9304 43.4763C61.2994 44.6095 60.1638 46.0023 58.8684 45.961C56.8965 45.8951 55.0846 46.5132 53.2029 46.8758C52.1166 47.0819 50.8867 47.1478 50.1898 45.8539C51.3172 45.0422 52.4158 44.2222 53.5473 43.4557C54.0802 43.0931 54.1335 42.7429 53.7359 42.2772C53.6949 42.2319 53.6457 42.1948 53.6088 42.1495C52.1658 40.3488 52.1781 40.3694 50.157 41.346C48.0294 42.3761 45.8403 43.2868 43.7455 44.3787C41.8187 45.3842 41.8884 45.4831 43.7168 46.6409C45.7091 47.8977 47.6482 49.241 49.5954 50.5679C49.8291 50.7286 49.9521 51.05 50.1816 51.2313C51.0384 51.9112 51.8952 52.5952 52.7889 53.2257C53.9039 54.0209 54.0228 54.8327 52.9857 55.4425C52.6659 55.6321 52.0592 55.6609 51.7558 55.4755C51.1081 55.0841 50.5342 55.2159 49.8742 55.3313C46.3691 55.9411 42.8395 56.4068 39.2853 56.1266C36.7846 55.9288 34.5873 54.7709 32.4924 53.4276C31.238 52.6241 29.9467 51.8659 28.6922 51.0623C26.786 49.8426 25.8185 47.9018 24.8756 45.9569C24.396 44.9639 23.9246 43.9626 23.5228 42.9365C23.0596 41.758 23.2851 41.3295 24.4903 40.835C24.5928 40.7938 24.683 40.7155 24.8224 40.6249H24.8265ZM25.0888 41.0905C25.2364 41.3007 25.384 41.5108 25.5275 41.721C26.0071 42.4297 26.5523 43.1055 26.9418 43.8595C27.4214 44.7867 27.7945 45.7715 28.1593 46.7522C28.6472 48.0626 29.4916 49.0639 30.6436 49.822C31.3897 50.3124 32.1276 50.8234 32.8983 51.2725C35.2268 52.6323 37.6373 53.6872 40.4331 53.6089C42.7493 53.5429 45.0696 53.6666 47.3899 53.6418C47.9802 53.6336 48.5664 53.3864 49.1527 53.2463C48.8083 52.7229 48.5746 52.0595 48.1073 51.6969C46.1273 50.1682 44.1226 48.6642 42.036 47.2879C40.6012 46.3401 39.0926 45.3965 37.4815 44.8402C35.44 44.1356 33.7305 43.1508 32.472 41.2553C30.0492 42.3308 27.569 43.0437 25.0888 41.0823V41.0905ZM31.197 34.992C31.2175 35.0909 31.238 35.1898 31.2544 35.2887C32.968 36.1788 34.6529 37.1512 36.6452 37.2336C36.9158 37.246 37.3503 37.0976 37.4487 36.8916C38.3137 35.1486 39.1787 33.3974 39.9248 31.5967C40.3019 30.6942 40.4372 29.6888 40.6791 28.7287C40.5848 28.6751 40.4905 28.6257 40.3962 28.5721C38.6498 29.1037 36.8543 29.5075 35.1202 30.4594C35.7638 30.9415 36.3418 31.2217 36.6862 31.6749C37.0715 32.1859 37.5143 32.8864 37.4528 33.455C37.3708 34.1967 36.5345 34.3863 35.8171 34.4357C35.2473 34.4769 34.6734 34.4646 34.1117 34.5388C33.1361 34.6624 32.1645 34.8354 31.1929 34.992H31.197Z" fill="white"/>
<path d="M39.0391 7.20698C39.2974 7.12457 39.5106 7.11633 39.5516 7.03392C39.9861 6.07794 40.8798 6.39111 41.6136 6.2098C43.1017 5.83895 44.2209 6.75372 45.4097 7.28116C46.4797 7.75502 47.3447 9.90185 46.3772 10.8125C45.9057 11.2575 45.1842 11.4388 44.5775 11.7396C43.1427 12.4484 41.7038 13.1571 40.269 13.8741C40.1542 13.9318 40.0845 14.0678 40.023 14.1296C40.5969 14.5334 41.2242 14.826 41.6423 15.304C42.5524 16.3465 41.9949 17.7846 40.642 18.0606C39.6008 18.2708 38.293 19.4204 37.8093 20.6566C38.3463 20.5248 38.8752 20.5371 39.199 20.2816C39.777 19.8284 40.2403 19.849 40.8593 20.1663C41.876 20.6896 43.1673 20.4918 44.0528 21.4436C44.5488 21.9752 45.0121 22.4285 44.6923 23.232C44.3725 24.0355 43.8519 24.5588 42.9459 24.5423C42.5278 24.5382 42.0727 24.5423 41.6956 24.3899C39.7688 23.5905 37.9692 24.2786 36.1695 24.8267C34.8331 25.2346 33.5582 25.8815 32.2094 26.2277C30.4754 26.6768 28.6921 26.9323 26.9252 27.2702C26.6301 27.3279 26.3349 27.3732 26.0356 27.4061C24.2196 27.5916 23.2398 26.4337 23.1865 24.7401C23.1865 24.5588 23.3997 24.3487 23.5555 24.1921C23.8301 23.9119 24.1007 23.5864 24.441 23.4256C24.7238 23.2938 25.1338 23.2773 25.4371 23.3721C27.6877 24.0726 31.1641 22.7334 32.4226 20.6442C31.5002 19.5564 31.492 19.5399 30.2253 20.1704C29.5325 20.5124 28.8356 20.8668 28.1961 21.2994C27.1425 22.0082 25.2486 21.8887 24.7935 20.2858C24.6705 19.8613 24.4123 19.474 24.2196 19.0661C24.0269 18.6581 23.8424 18.2502 23.6498 17.8381C24.318 17.047 25.0354 16.9646 25.9701 17.1253C26.9539 17.2942 27.9911 17.1706 29.0037 17.15C29.2373 17.1459 29.4751 16.9893 29.7047 16.9975C31.4059 17.0634 32.1275 15.852 32.7834 14.5993C33.1031 13.9895 33.2999 13.3178 33.6074 12.5226C32.5415 12.7162 31.82 13.3261 31.0698 13.8617C30.4016 14.3397 29.7826 14.8837 29.1225 15.3658C28.483 15.8314 27.2737 15.8396 26.6424 15.3987C25.8307 14.8301 25.5273 13.9771 25.6011 13.0541C25.6749 12.1764 25.8799 11.2987 26.1381 10.4581C26.2365 10.1367 26.585 9.77 26.8965 9.66286C28.5199 9.1107 29.6186 7.8704 30.8566 6.80317C31.3486 6.37875 31.8364 5.94608 32.398 5.45161C31.5781 5.02307 30.8894 4.63161 30.172 4.30609C29.4792 3.9888 28.5691 2.76498 28.6839 2.00679C28.7413 1.63594 29.057 1.11674 29.3644 1.01785C29.844 0.869508 30.4672 0.894231 30.9386 1.08378C31.4428 1.28157 31.8282 1.77604 32.2914 2.10157C33.386 2.868 33.6443 2.69081 34.6404 1.85021C35.1529 1.42167 36.0957 1.40519 36.8418 1.40519C37.2641 1.40519 37.51 1.41343 37.9159 1.15383C39.4532 0.177248 41.1299 -0.465565 42.9377 0.424484C43.3272 0.618151 43.6838 1.0879 43.8355 1.51232C44.0446 2.0892 43.8355 2.69905 43.2247 2.95041C42.4909 3.25945 41.7284 3.57262 40.9495 3.66739C39.6582 3.82398 39.3261 4.06709 39.2113 5.37332C39.1621 5.93784 39.0883 6.49824 39.0104 7.21523L39.0391 7.20698ZM34.087 6.99683C33.2179 7.78387 32.4554 8.46789 31.697 9.15603C33.6647 8.78929 34.5215 8.51321 34.087 6.99683ZM38.6374 11.5666C38.5636 11.4471 38.4939 11.3276 38.4201 11.2081C37.9856 11.4059 37.5428 11.5913 37.1247 11.8179C37.0386 11.8633 36.9812 12.1023 37.0222 12.197C37.0632 12.2918 37.301 12.4072 37.3707 12.366C37.8052 12.1229 38.2193 11.8344 38.6374 11.5625V11.5666Z" fill="white"/>
<path d="M21.2353 44.6384C21.0795 46.0146 20.9278 47.3909 20.7638 48.7672C20.5261 50.7657 20.5712 52.7106 21.4689 54.5937C21.6944 55.0676 21.5796 55.7722 21.4443 56.3285C21.305 56.8971 21.0098 57.4452 20.2391 57.4534C19.4274 57.4617 18.8904 57.1114 18.5009 56.415C17.5294 54.672 17.4351 52.7724 17.5048 50.8481C17.6072 48.042 17.7343 45.24 17.8204 42.4339C17.8573 41.2389 18.2919 40.2623 19.2101 39.533C19.3823 39.397 19.9316 39.4093 20.0013 39.533C20.4113 40.2664 20.8868 41.0246 21.0467 41.8281C21.223 42.7305 21.0877 43.6948 21.0877 44.6342C21.1369 44.6342 21.1902 44.6425 21.2394 44.6466V44.6384H21.2353Z" fill="white"/>
</g>
<defs>
<clipPath id="clip0_768_3995">
<rect width="61" height="60" fill="white"/>
</clipPath>
</defs>
</svg>
