<svg width="60" height="60" viewBox="0 0 60 60" fill="none" xmlns="http://www.w3.org/2000/svg">
<g clip-path="url(#clip0_501_595)">
<path d="M9.24229 50.3351C9.74091 49.2926 10.2083 48.2889 10.7101 47.3025C10.7629 47.2012 11.0214 47.17 11.1861 47.17C13.5791 47.1614 15.9731 47.1636 18.3682 47.1636C19.4623 47.1636 19.989 46.6972 20.1397 45.6009C20.1688 45.392 20.214 45.1842 20.2302 44.9752C20.2883 44.2332 19.933 43.838 19.1834 43.8326C17.708 43.824 16.2316 43.8412 14.7562 43.8272C13.0126 43.8111 11.5771 42.8537 11.2421 41.2663C10.5723 38.085 12.3955 34.2447 16.3877 34.039C18.1593 33.9475 19.9405 34.0239 21.7174 34.0261C21.7885 34.0261 21.8596 34.0466 21.991 34.067C21.7648 35.1386 21.543 36.1886 21.3168 37.2666H17.4431C16.9596 37.2666 16.4782 37.258 15.9968 37.2687C15.2483 37.2849 14.6775 37.763 14.5322 38.4921C14.4729 38.7872 14.4191 39.0844 14.3814 39.3827C14.2899 40.1086 14.6937 40.5728 15.4346 40.5771C16.8508 40.5846 18.2659 40.5771 19.682 40.5792C22.3237 40.5846 23.8573 42.3755 23.4997 44.9871C23.2693 46.6725 22.7147 48.1673 21.3147 49.241C20.4176 49.927 19.4225 50.3642 18.2799 50.3685C15.3894 50.3814 12.4989 50.3739 9.60629 50.3717C9.50829 50.3717 9.40813 50.3523 9.24121 50.3351H9.24229Z" fill="white"/>
<path d="M23.0324 50.3787C23.9101 49.4719 24.5842 48.4973 25.0161 47.3493C25.0527 47.2524 25.2724 47.1738 25.4092 47.1727C26.5216 47.1587 27.6363 47.1652 28.7509 47.1641C29.7061 47.1619 30.2683 46.6838 30.4309 45.7458C30.8444 43.3604 31.2601 40.9739 31.6758 38.5885C31.8212 37.7474 31.4346 37.2714 30.5892 37.2693C29.1278 37.2639 27.6686 37.2746 26.2072 37.2606C25.9056 37.2585 25.7958 37.3586 25.7452 37.6559C25.4813 39.2239 25.1938 40.7887 24.8998 42.4385C24.805 42.2953 24.7425 42.2199 24.7027 42.137C24.2235 41.1204 23.5213 40.2825 22.6016 39.645C22.3238 39.4522 22.2462 39.2691 22.3065 38.945C22.5898 37.4222 22.8579 35.8962 23.1164 34.368C23.1605 34.1074 23.265 34.018 23.5278 34.0191C26.1619 34.0266 28.7983 33.9889 31.4324 34.0352C33.8609 34.0783 35.3815 36.0222 34.9561 38.4539C34.5135 40.9868 34.0677 43.5197 33.6024 46.0484C33.1534 48.4865 30.8853 50.3679 28.4073 50.3776C26.6164 50.3852 24.8255 50.3798 23.0345 50.3798L23.0324 50.3787Z" fill="white"/>
<path d="M47.2116 41.9762C48.253 41.1814 48.9358 39.8762 48.9358 38.3965C48.9358 36.0272 47.1922 34.1038 45.0147 34.0177C44.7487 33.9778 44.4794 33.9983 44.2102 34.0091C44.0573 34.008 43.9033 34.0069 43.7504 34.0058C43.5533 34.0058 43.3551 34.0058 43.1581 34.008C42.0607 34.008 43.9582 34.0091 42.8619 34.0091C42.247 34.0091 41.6331 34.008 41.0182 34.008H38.649C37.9253 34.008 37.2016 34.0069 36.4768 34.0069H34.4112C35.1274 34.6035 35.5657 34.8803 35.8996 35.4263C36.5543 36.4989 36.6771 38.0885 36.5489 39.3926C35.8909 46.0954 34.9519 49.4921 33.1265 50.3751H33.9945C36.2625 50.3698 39.7367 50.3655 42.0047 50.3601C42.6411 50.3601 40.7091 50.3622 41.3467 50.3633C42.4204 50.3622 41.7807 50.3611 44.1445 50.3611C44.3825 50.3611 44.6216 50.3676 44.8596 50.3687C44.9081 50.3698 44.9565 50.3784 45.0071 50.3784C47.3344 50.3784 49.2201 48.3462 49.2201 45.8391C49.2201 44.2033 48.4145 42.7742 47.2116 41.9751V41.9762ZM43.0191 47.1842H39.0506L39.4943 43.3633H43.0191C44.0756 43.3633 44.9307 44.2183 44.9307 45.2727C44.9307 46.327 44.0756 47.1842 43.0191 47.1842ZM43.0977 40.9197H39.7776L40.203 37.2571H43.0977C44.1101 37.2571 44.9296 38.0766 44.9296 39.0879C44.9296 40.0991 44.109 40.9197 43.0977 40.9197Z" fill="white"/>
<g style="mix-blend-mode:multiply">
<path d="M8.96338 49.9605C9.462 48.9181 9.93046 47.9144 10.4334 46.9279C10.484 46.8267 10.7435 46.7954 10.9083 46.7954C13.3023 46.7868 15.6953 46.789 18.0903 46.789C19.1856 46.789 19.7111 46.3227 19.863 45.2253C19.891 45.0164 19.9362 44.8096 19.9534 44.5996C20.0105 43.8576 19.6562 43.4623 18.9056 43.457C17.4302 43.4483 15.9537 43.4656 14.4783 43.4516C12.7359 43.4354 11.2992 42.478 10.9665 40.8906C10.2945 37.7094 12.1199 33.8691 16.1099 33.6623C17.8814 33.5718 19.6627 33.6483 21.4396 33.6494C21.5118 33.6494 21.5828 33.6698 21.7131 33.6914C21.4881 34.7629 21.2662 35.8129 21.039 36.8909H17.1653C16.6839 36.8909 16.2014 36.8823 15.72 36.8931C14.9705 36.9092 14.3997 37.3874 14.2543 38.1165C14.1951 38.4126 14.1413 38.7088 14.1046 39.0071C14.012 39.7329 14.4159 40.1971 15.1579 40.2025C16.573 40.21 17.988 40.2025 19.4042 40.2046C22.0459 40.21 23.5805 42.002 23.223 44.6125C22.9915 46.2979 22.4368 47.7927 21.0368 48.8653C20.1397 49.5513 19.1447 49.9885 18.0031 49.9928C15.1116 50.0047 12.22 49.9982 9.32953 49.9961C9.22938 49.9961 9.1303 49.9767 8.96338 49.9595V49.9605Z" fill="white"/>
<path d="M22.7534 50.0038C23.63 49.097 24.3041 48.1213 24.7381 46.9744C24.7748 46.8775 24.9934 46.7989 25.1301 46.7978C26.2448 46.7827 27.3572 46.7903 28.4719 46.7892C29.4282 46.787 29.9893 46.3089 30.1519 45.3709C30.5654 42.9844 30.9822 40.599 31.3968 38.2136C31.5433 37.3725 31.1556 36.8954 30.3102 36.8933C28.8509 36.889 27.3895 36.8997 25.9292 36.8847C25.6266 36.8825 25.5168 36.9837 25.4672 37.2799C25.2023 38.8479 24.9148 40.4127 24.6208 42.0625C24.526 41.9193 24.4635 41.845 24.4237 41.761C23.9444 40.7433 23.2434 39.9065 22.3237 39.269C22.0447 39.0773 21.9672 38.8931 22.0264 38.569C22.3097 37.0462 22.5789 35.5202 22.8363 33.992C22.8815 33.7314 22.9849 33.642 23.2477 33.6431C25.8829 33.6506 28.5182 33.613 31.1523 33.6593C33.5819 33.7023 35.1025 35.6462 34.6771 38.0779C34.2334 40.6108 33.7876 43.1438 33.3213 45.6735C32.8722 48.1106 30.6042 49.992 28.1262 50.0017C26.3352 50.0081 24.5443 50.0027 22.7534 50.0027V50.0038Z" fill="white"/>
<path d="M46.9326 41.6012C47.9739 40.8064 48.6567 39.5012 48.6567 38.0215C48.6567 35.6522 46.9132 33.7288 44.7356 33.6427C44.4707 33.6028 44.2004 33.6233 43.9322 33.6341C43.7793 33.633 43.6242 33.6319 43.4713 33.6298C43.2742 33.6308 43.0772 33.6308 42.879 33.6319C41.7827 33.6319 43.6792 33.633 42.5828 33.633C41.969 33.633 41.3541 33.6319 40.7402 33.6319H38.371C37.6473 33.6319 36.9236 33.6308 36.1988 33.6308H34.1311C34.8494 34.2274 35.2856 34.5042 35.6194 35.0502C36.2742 36.1228 36.397 37.7124 36.2688 39.0165C35.6119 45.7194 34.6717 49.116 32.8474 49.9991H33.7154C35.9834 49.9937 39.4565 49.9894 41.7245 49.984C42.361 49.9851 40.4301 49.9861 41.0665 49.9872C42.1402 49.9861 41.5005 49.9851 43.8644 49.9851C44.1035 49.9851 44.3415 49.9926 44.5795 49.9926C44.629 49.9926 44.6764 50.0023 44.727 50.0023C47.0543 50.0023 48.941 47.9701 48.941 45.463C48.941 43.8272 48.1355 42.3981 46.9315 41.599L46.9326 41.6012ZM42.7401 46.8103H38.7716L39.2153 42.9883H42.7401C43.7965 42.9883 44.6516 43.8444 44.6516 44.8987C44.6516 45.953 43.7965 46.8103 42.7401 46.8103ZM42.8198 40.5458H39.4996L39.925 36.8832H42.8198C43.8321 36.8832 44.6516 37.7027 44.6516 38.7139C44.6516 39.7252 43.8321 40.5458 42.8198 40.5458Z" fill="white"/>
</g>
<path d="M49.2415 13.3462C49.2006 13.1071 48.9723 12.9488 48.7343 12.9908L40.5399 14.4285L36.6404 7.08062C36.5521 6.91262 36.3658 6.82108 36.1784 6.85447C35.9921 6.88678 35.8478 7.03539 35.8208 7.22493L34.6567 15.4613L26.4623 16.9001C26.275 16.9324 26.1317 17.0821 26.1048 17.2694C26.0779 17.4568 26.1748 17.6399 26.346 17.7239L33.8199 21.3769L32.6558 29.6143C32.6288 29.8017 32.7258 29.9858 32.897 30.0698C32.9821 30.1107 33.0768 30.1226 33.1662 30.1075C33.2556 30.0914 33.3396 30.0472 33.4053 29.9794L39.1895 24.0002L46.6634 27.6532C46.7484 27.6952 46.8421 27.706 46.9315 27.6909C47.022 27.6758 47.106 27.6327 47.1717 27.5649C47.3031 27.4281 47.3321 27.2224 47.2438 27.0544L43.3443 19.7065L49.1231 13.7317C49.1381 13.7156 49.1532 13.6994 49.1661 13.6811C49.1737 13.6703 49.1812 13.6607 49.1866 13.6499C49.2405 13.5627 49.2631 13.455 49.2437 13.3473L49.2415 13.3462ZM36.2538 7.28416L38.3086 18.9936L38.2752 18.9311L38.2547 18.9419L35.0455 15.8361L36.2538 7.28416ZM26.5377 17.3287L38.1922 18.9775L34.2981 21.1227L26.5388 17.3298L26.5377 17.3287ZM33.0876 29.6735L38.2558 19.0991L39.0926 23.465L33.0876 29.6724V29.6735ZM46.8529 27.259L38.3936 19.0755L38.3829 19.0033L42.8058 19.629L46.854 27.258L46.8529 27.259ZM38.3086 18.9925L40.303 14.9131L48.8097 13.4205L38.3086 18.9925Z" fill="white"/>
<path d="M16.6934 14.1465L15.6111 17.8156L15.7285 17.7897L18.4714 17.1942L16.6934 14.1465Z" fill="white"/>
<path d="M14.1228 19.2139L10.3633 20.028L14.5051 22.869L14.0011 27.867L17.9836 24.8064L19.5172 25.4816L19.7595 23.08L15.2924 20.0151L14.1228 19.2139Z" fill="white"/>
<path d="M25.5039 10.9697L24.0554 15.8751L24.2137 15.8407L27.8796 15.0448L25.5039 10.9697Z" fill="white"/>
<path d="M22.0663 17.7422L17.0403 18.832L22.5778 22.6293L21.9037 29.3095L27.2259 25.2182L29.2785 26.1207L29.6027 22.9104L23.63 18.8137L22.0663 17.7422Z" fill="white"/>
<path d="M52.5843 60H7.41358C3.32663 60 0 56.6723 0 52.5843V7.41358C0 3.32663 3.32663 0 7.41358 0H52.5843C56.6723 0 60 3.32663 60 7.41358V52.5843C60 56.6723 56.6723 60 52.5843 60ZM7.41358 1.92232C4.38525 1.92232 1.92339 4.38525 1.92339 7.41358V52.5843C1.92339 55.6115 4.38633 58.0766 7.41358 58.0766H52.5843C55.6126 58.0766 58.0777 55.6115 58.0777 52.5843V7.41358C58.0777 4.38525 55.6126 1.92232 52.5843 1.92232H7.41358Z" fill="white"/>
</g>
<defs>
<clipPath id="clip0_501_595">
<rect width="60" height="60" fill="white"/>
</clipPath>
</defs>
</svg>
