<svg width="132" height="60" viewBox="0 0 132 60" fill="none" xmlns="http://www.w3.org/2000/svg">
<g clip-path="url(#clip0_477_474)">
<path d="M13.4556 4.89318C13.0404 3.98687 12.3734 3.21904 11.5341 2.68118C10.6948 2.14332 9.7185 1.85811 8.72162 1.85954C8.11986 1.83167 7.5189 1.92966 6.95717 2.14725C6.39543 2.36484 5.88527 2.69725 5.4593 3.12321C5.03333 3.54918 4.70093 4.05934 4.48334 4.62108C4.26575 5.18282 4.16776 5.78377 4.19563 6.38554C4.19563 9.01551 6.03049 9.88401 8.46474 11.0828C10.1597 11.8066 11.7956 12.6614 13.3577 13.6394C14.1584 14.1314 14.8151 14.8259 15.2618 15.6527C15.7085 16.4795 15.9293 17.4095 15.9021 18.3488C15.8736 19.3149 15.6546 20.2659 15.2577 21.1471C14.8607 22.0284 14.2937 22.8225 13.589 23.484C12.8843 24.1455 12.0559 24.6613 11.1514 25.0018C10.2468 25.3423 9.28391 25.5007 8.31796 25.4681C7.24066 25.5079 6.16876 25.2979 5.18619 24.8543C4.20362 24.4108 3.33706 23.7458 2.65435 22.9115C1.97133 22.1297 1.44404 21.2246 1.10083 20.2449L2.4464 19.5721C2.75779 20.4133 3.20398 21.1983 3.7675 21.8962C4.32262 22.5606 5.01946 23.0922 5.80689 23.4521C6.59432 23.8119 7.45233 23.9908 8.31796 23.9757C9.07996 24.0104 9.84111 23.8907 10.5557 23.6239C11.2703 23.3571 11.9237 22.9487 12.4766 22.4232C13.0295 21.8977 13.4706 21.266 13.7733 20.5658C14.0761 19.8657 14.2343 19.1116 14.2384 18.3488C14.231 17.5594 14.0053 16.7874 13.5865 16.1182C13.1678 15.449 12.5721 14.9086 11.8654 14.5568C11.1681 14.1531 9.78584 13.4559 7.74303 12.4406C5.29655 11.2785 4.07331 10.618 3.29043 9.23569C2.77947 8.40015 2.51252 7.4383 2.51979 6.45893C2.4982 5.64219 2.64623 4.82986 2.95455 4.07324C3.26286 3.31662 3.72475 2.63217 4.31103 2.06314C4.89731 1.4941 5.59524 1.05285 6.36072 0.767251C7.1262 0.481656 7.94259 0.357929 8.75832 0.403886C9.96961 0.372512 11.1656 0.679942 12.2116 1.29155C13.2576 1.90317 14.1121 2.79467 14.6788 3.86566L13.4556 4.89318Z" fill="white"/>
<path d="M24.9662 13.4556V25.0275H23.3516V0.72168H28.061C32.0366 0.72168 35.1803 2.91128 35.1803 7.08254C35.1803 11.2538 32.2935 13.4556 28.1344 13.4556H24.9662ZM24.9662 12H28.1344C31.3149 12 33.4555 10.1406 33.4555 7.107C33.4555 4.07336 31.4127 2.21403 27.8776 2.21403H24.9662V12Z" fill="white"/>
<path d="M51.3761 17.1254H41.0153L37.7614 25.1132H36.0122L46.263 0L56.3792 25.0642H54.6177L51.3761 17.1254ZM50.789 15.6697L46.2263 4.08563L41.5902 15.6208L50.789 15.6697Z" fill="white"/>
<path d="M72.5749 25.0647L64.6849 13.5784H63.9632V25.0647H62.3853V0.722178H65.896C67.6952 0.570726 69.4956 0.999405 71.0336 1.94542C71.8498 2.54595 72.504 3.33989 72.9375 4.25587C73.3709 5.17185 73.57 6.18117 73.5168 7.19313C73.5901 8.49213 73.2282 9.7785 72.4882 10.8486C71.7482 11.9188 70.6724 12.7115 69.4311 13.1014C68.4676 13.417 67.4603 13.578 66.4464 13.5784L74.3975 25.0647H72.5749ZM64.0122 12.1106H66.2996C69.7614 12.1106 71.8409 10.2879 71.8409 7.1442C71.913 6.31216 71.7535 5.47639 71.38 4.7294C71.0065 3.98241 70.4336 3.35333 69.7247 2.91178C68.5675 2.41053 67.3158 2.16438 66.055 2.19007H63.9632L64.0122 12.1106Z" fill="white"/>
<path d="M83.1805 12.2324L94.7157 0.72168H96.8319L85.0521 12.3669L97.5291 25.0642H95.3395L83.8777 13.4556L83.2294 14.0672V25.0764H81.6147V0.72168H83.1805V12.2324Z" fill="white"/>
<path d="M105.113 0.72168V23.6085H111.902V25.0642H103.511V0.72168H105.113Z" fill="white"/>
<path d="M121.603 14.6789L113.615 0.72168H115.437L122.447 13.0153L129.59 0.782842H131.425L123.217 14.6789V25.0764H121.603V14.6789Z" fill="white"/>
<path d="M130.789 29.7246H0V30.9356H130.789V29.7246Z" fill="white"/>
<path d="M2.44644 35.0332V59.3757H0.843994V35.0332H2.44644Z" fill="white"/>
<path d="M9.01538 59.3765V35.034H13.835C15.4809 34.9725 17.1225 35.2418 18.6626 35.8259C20.2027 36.41 21.61 37.2971 22.8013 38.4346C25.056 40.8004 26.3138 43.9432 26.3138 47.2113C26.3138 50.4795 25.056 53.6223 22.8013 55.9881C21.6098 57.1246 20.2022 58.0101 18.662 58.5922C17.1217 59.1742 15.4802 59.4409 13.835 59.3765H9.01538ZM10.6178 57.9208H13.786C20.208 57.9208 24.6239 53.5416 24.6239 47.2297C24.6763 45.7974 24.4309 44.3699 23.9033 43.0373C23.3757 41.7047 22.5773 40.4961 21.5587 39.4879C20.5401 38.4796 19.3234 37.6937 17.9855 37.1797C16.6477 36.6657 15.2177 36.4349 13.786 36.5019H10.6178V57.9208Z" fill="white"/>
<path d="M43.2293 36.5011H33.162V45.3329H42.948V46.7886H33.162V57.9201H43.2293V59.3757H31.5596V35.0332H43.2293V36.5011Z" fill="white"/>
<path d="M48.4893 59.3762V34.7891L68.9174 56.1713V35.0337H70.5198V60.0001L50.1529 38.6178V59.4129L48.4893 59.3762Z" fill="white"/>
<path d="M82.2386 36.5011V59.3757H80.6239V36.5011H74.312V35.0332H88.5505V36.5011H82.2386Z" fill="white"/>
<path d="M93.945 35.0332V59.3757H92.3425V35.0332H93.945Z" fill="white"/>
<path d="M105.651 36.5011V59.3757H104.049V36.5011H97.7371V35.0332H111.963V36.5011H105.651Z" fill="white"/>
<path d="M121.346 48.9293L113.358 34.9844H115.181L122.19 47.3391L129.333 35.0333H131.156L122.948 48.9293V59.3269H121.346V48.9293Z" fill="white"/>
</g>
<defs>
<clipPath id="clip0_477_474">
<rect width="131.425" height="60" fill="white"/>
</clipPath>
</defs>
</svg>
