<svg width="60" height="60" viewBox="0 0 60 60" fill="none" xmlns="http://www.w3.org/2000/svg">
<g clip-path="url(#clip0_417_10223)">
<path d="M54.2819 11.4279V22.3279L54.8149 22.8609L59.9961 28.0419V6.44189H54.2819V11.4279Z" fill="white"/>
<path d="M48.5717 31.429H37.1383V31.478L31.4731 37.143H42.8535V54.285H31.4281V59.999H54.2859L60 54.285H48.5717V37.143H60V31.429H48.5717Z" fill="white"/>
<path d="M23.2998 31.429H-0.000976562V54.286L5.71322 60H28.568V48.569L22.8568 42.858H14.2845V48.572H22.8578V54.286H5.71522V37.143H22.8578L28.569 31.432H23.2998V31.429Z" fill="white"/>
<path d="M42.8564 22.856H37.8562V28.543H59.4929L54.2848 23.3349L53.8057 22.856H42.8564Z" fill="white"/>
<path d="M37.6753 5.714H59.999L54.3118 0H31.9611L37.1422 5.181L37.6753 5.714Z" fill="white"/>
<path d="M37.1383 22.8571V6.19007L36.6622 5.71407L31.4241 0.476074V22.8561L37.1383 28.5431V22.8571Z" fill="white"/>
<path d="M20.4887 0L17.1426 3.346L14.7735 5.715L11.4294 9.06L10.2194 10.273L9.06333 11.429L6.18023 14.312L5.71722 14.775V0H5.69021L-0.000976562 5.714V28.57H5.71322V22.854L10.2134 18.354L11.4234 19.564L14.7175 22.858L17.1376 25.278L20.4317 28.572H28.512L22.8548 22.905L22.8038 22.854L17.1436 17.194L17.0896 17.14L14.2585 14.309L14.2855 14.282L17.1416 11.426L22.8528 5.715L28.567 0.000999451H20.4867L20.4887 0ZM5.66021 22.905L5.60921 22.854H5.70922L5.66021 22.905ZM11.4294 11.482L11.3754 11.428H11.4294V11.482Z" fill="white"/>
</g>
<defs>
<clipPath id="clip0_417_10223">
<rect width="60" height="60" fill="white"/>
</clipPath>
</defs>
</svg>
